<svg xmlns="http://www.w3.org/2000/svg" width="24" height="24" viewBox="0 0 48 48"><g><path fill="#4285F4" d="M44.5 20H24v8.5h11.7C34.7 33.1 30.1 36 24 36c-6.6 0-12-5.4-12-12s5.4-12 12-12c2.6 0 5 .8 7 2.3l6.6-6.6C33.5 6.1 28.9 4 24 4 12.9 4 4 12.9 4 24s8.9 20 20 20c11 0 19.7-8 19.7-20 0-1.3-.1-2.7-.2-4z"/><path fill="#34A853" d="M6.3 14.7l7 5.1C15.5 16.1 19.4 13 24 13c2.6 0 5 .8 7 2.3l6.6-6.6C33.5 6.1 28.9 4 24 4c-7.7 0-14.3 4.3-17.7 10.7z"/><path fill="#FBBC05" d="M24 44c5.8 0 10.7-1.9 14.3-5.1l-6.6-5.4C29.6 35.1 27 36 24 36c-6.1 0-10.7-2.9-13.7-7.1l-7 5.4C9.7 41.7 16.3 44 24 44z"/><path fill="#EA4335" d="M44.5 20H24v8.5h11.7c-1.2 3.2-4.7 7.5-11.7 7.5-6.6 0-12-5.4-12-12s5.4-12 12-12c2.6 0 5 .8 7 2.3l6.6-6.6C33.5 6.1 28.9 4 24 4c-7.7 0-14.3 4.3-17.7 10.7l7 5.1C15.5 16.1 19.4 13 24 13c2.6 0 5 .8 7 2.3l6.6-6.6C33.5 6.1 28.9 4 24 4c-7.7 0-14.3 4.3-17.7 10.7z"/></g></svg> 